<?xml version="1.0" standalone="no"?>
<!DOCTYPE svg PUBLIC "-//W3C//DTD SVG 20010904//EN"
 "http://www.w3.org/TR/2001/REC-SVG-20010904/DTD/svg10.dtd">
<svg version="1.0" xmlns="http://www.w3.org/2000/svg"
 width="180.000000pt" height="180.000000pt" viewBox="0 0 180.000000 180.000000"
 preserveAspectRatio="xMidYMid meet">
<metadata>
Created by potrace 1.14, written by Peter Selinger 2001-2017
</metadata>
<g transform="translate(0.000000,180.000000) scale(0.100000,-0.100000)"
fill="#000000" stroke="none">
<path d="M763 1791 c-346 -56 -625 -304 -730 -648 -24 -79 -26 -104 -26 -243
0 -139 2 -164 26 -243 94 -309 315 -530 624 -624 79 -24 104 -26 243 -26 139
0 164 2 243 26 309 94 530 315 624 624 24 79 26 104 26 243 0 139 -2 164 -26
243 -94 310 -318 533 -624 623 -97 28 -283 40 -380 25z m337 -211 c172 -35
278 -110 339 -240 23 -48 26 -68 26 -155 0 -89 -3 -106 -27 -150 -35 -67 -114
-140 -193 -177 -74 -34 -256 -61 -276 -41 -7 7 -9 32 -4 72 7 58 8 61 34 61
15 0 50 7 78 15 70 21 117 74 133 150 28 135 -43 247 -185 294 -90 29 -249 30
-337 0 -128 -42 -209 -131 -194 -214 9 -46 53 -93 96 -101 17 -4 33 -11 36
-16 3 -5 3 -36 -1 -70 l-7 -60 -51 6 c-97 13 -181 74 -217 158 -29 67 -25 170
9 236 61 119 188 202 361 237 100 20 269 18 380 -5z m-135 -242 c3 -3 -12
-122 -35 -263 -22 -142 -39 -259 -38 -260 2 -1 23 -13 48 -27 57 -33 122 -101
151 -157 28 -55 37 -176 19 -252 -18 -74 -85 -141 -166 -165 -119 -34 -252 -4
-309 70 -50 65 -51 111 -12 411 20 149 46 347 58 442 l22 171 61 21 c58 20
184 26 201 9z"/>
<path d="M862 598 c-22 -187 -15 -228 39 -228 116 0 136 183 32 288 -23 23
-46 42 -51 42 -5 0 -14 -46 -20 -102z"/>
</g>
</svg>
